<svg width="240" height="240" viewBox="0 0 240 240" fill="none" xmlns="http://www.w3.org/2000/svg">
<path d="M69 60.5452V42.1178C69 36.5398 69 36.1413 70.3077 36.1413C71.1795 36.1413 73.1093 35.8233 73.8462 36.1413C75 36.6394 75 40.1256 75 42.1178V62.5373C75 66.5216 74.8462 72 73.8462 72H70.6154C69 72 69 64.0314 69 60.5452Z" stroke="#232323" stroke-width="4"/>
<path d="M70 59.5L38 83L38.5 85.5L41 88.5L72 69L75.5 63L70 59.5Z" fill="white"/>
<path d="M71.5 57.5L76.5 63.5L87 44L97 34L117 30.5H138.5L139.5 28L127 22L111 19.5L95.5 22.5L81 32L73.5 40.5L71.5 57.5Z" fill="white"/>
<path d="M78 167L95 187L98.5 189L105.5 185.5L82.5 149L81 89H65V92V114L66.5 136L72 155L78 167Z" fill="white"/>
<path d="M74 64L40.5 87.5L73 89.5C73.3333 101.833 72.5185 120 76.5 141.5C79.1231 155.665 91.3333 177.833 98 185.5L104.5 192.5L118.5 198.5L136 200L153.5 196.5L170 189L182 179L194 165L201 151.5L206.5 135L208.5 98.5H198.5L197.5 120L187.5 133L176.5 141L158.5 144.5L143 140L130.5 126.5L126.5 116.5V108.5L128.5 103.5L131.5 98.5L136 93.5L141.5 91L151 89.5L160.5 87.5V72.5L156 51C151.833 44.3333 143.4 31 143 31C142.5 31 146.5 27 112.5 27C85.3 27 75.5 51.6667 74 64Z" fill="#FFED2D"/>
<path d="M85.5287 96.2387C79.2171 99.5556 65.8622 100.613 65.0605 95.2566C64.7414 93.1244 65.7034 91.7912 67.4972 90.019C70.9548 86.6032 75.9984 85.6806 82.1173 86.0908C86.0214 86.3525 89.6023 86.3591 91.3768 88.7096C93.6097 91.6675 89.4173 94.1951 85.5287 96.2387Z" fill="black" fill-opacity="0.2"/>
<path d="M149.997 101.22L198.046 102.326C199.132 102.351 200 103.239 200 104.325V119.482C200 121.77 199.702 124.053 198.938 126.21C197.94 129.032 196.301 133.058 194.301 135.723C190.746 140.458 187.656 142.512 182.385 145.774C176.011 149.719 173.037 151.05 165.287 151.714C157.179 152.409 151.158 152.018 144.045 148.516C136.924 145.009 132.745 142.122 129.02 135.723C125.375 129.459 123.885 123.344 125.912 116.534C126.953 113.036 129.892 109.605 132.855 106.862C137.441 102.615 143.748 101.077 149.997 101.22Z" fill="black" fill-opacity="0.12"/>
<path d="M132.5 130.5L141 138L146 141.5V135.5L143.5 122.5L141 104L164.5 99.5L199.5 100.5L198 90L178.5 89H155.5H142.5L134.5 93L129 100.5L126 109.5L127 120L132.5 130.5Z" fill="#FFFCD8"/>
<path d="M134 113C132.905 119.511 136.851 127.946 139.73 133.029C141.431 136.031 144.137 138.28 147.253 139.763L149.958 141.052C151.972 142.01 154.132 142.626 156.348 142.872L161.083 143.398C164.63 143.792 168.217 143.23 171.473 141.771L178.227 138.743C180.065 137.919 181.768 136.822 183.279 135.49L187.786 131.512C188.925 130.507 189.946 129.376 190.828 128.14L193.275 124.715C195.698 121.323 197 117.259 197 113.091V97L149.636 97.9666C148.547 97.9888 147.461 98.0937 146.405 98.363C144.268 98.9085 140.511 100.085 138.5 102C135.139 105.201 134.77 108.423 134 113Z" fill="url(#paint0_linear_3_27)"/>
<g filter="url(#filter0_f_3_27)">
<ellipse cx="176" cy="109.5" rx="3" ry="3.5" fill="#2C2C2C" fill-opacity="0.69"/>
</g>
<path d="M205 127.5C183 173.1 125.833 187.167 100 188.5L106 193L124.5 199.5H142L163 193.5L179.5 181.5L193 166L203.5 146.5L206.5 132V125.5L205 127.5Z" fill="black" fill-opacity="0.2"/>
<path d="M70.5 59.5C70.5 59.5 70.2699 46.6108 75 39.5C78.6145 34.0664 81.9202 30.8844 87.5 27.5C93.4847 23.87 97.1081 21.723 104 20.5C109.383 19.5447 112.569 19.8664 118 20.5C123.175 21.1038 126.202 21.4696 131 23.5C136.437 25.8005 139.26 27.8929 143.5 32C147.203 35.5866 148.798 38.1101 151.5 42.5C154.339 47.1111 155.699 49.8934 157.5 55C159.754 61.3924 160.32 65.256 161 72C161.666 78.6054 161 89 161 89" stroke="black" stroke-width="9"/>
<path d="M40.9701 79.906L70.7756 59.0079C71.1892 58.7179 71.7542 58.7819 72.0924 59.157L83.9459 72.3036C89.7463 78.7368 85.181 89 76.519 89H43.8405C38.9539 89 36.969 82.7114 40.9701 79.906Z" stroke="black" stroke-width="8"/>
<path d="M65.5 129L69.9432 128.287L65.5 129ZM79 168.5L75.2933 171.052L79 168.5ZM108.5 194L106.735 198.139L108.5 194ZM142.5 198.5L143.056 202.966L142.5 198.5ZM178.5 182.5L175.624 179.039L175.624 179.039L178.5 182.5ZM198.5 156L202.528 158.007L198.5 156ZM208 115L203.511 114.682L208 115ZM212.495 95.797C212.383 93.3142 210.28 91.3924 207.797 91.5046C205.314 91.6167 203.392 93.7203 203.505 96.203L212.495 95.797ZM127 105.5L131.353 106.642L127 105.5ZM130 126.5L125.997 128.555L130 126.5ZM144.5 140.5L142.306 144.429L142.306 144.429L144.5 140.5ZM165 144L165.435 148.479L165 144ZM181.5 137.5L178.915 133.817L178.915 133.817L181.5 137.5ZM193 126.5L189.248 124.016L193 126.5ZM133.069 95.5914L129.749 92.5534L133.069 95.5914ZM65.5 90C61.0226 89.5494 61.0226 89.5498 61.0225 89.5503C61.0225 89.5506 61.0224 89.5513 61.0224 89.5519C61.0223 89.5531 61.0221 89.5546 61.0219 89.5566C61.0215 89.5604 61.021 89.5658 61.0203 89.5725C61.019 89.586 61.0171 89.6053 61.0146 89.6302C61.0098 89.6799 61.0027 89.7521 60.9938 89.8459C60.9759 90.0333 60.9504 90.3067 60.919 90.6581C60.8561 91.3606 60.7697 92.3756 60.6738 93.6383C60.4822 96.1619 60.2523 99.6847 60.0989 103.688C59.7954 111.611 59.7769 121.732 61.0568 129.713L69.9432 128.287C68.8114 121.23 68.7929 111.851 69.0923 104.033C69.2404 100.166 69.4627 96.7588 69.6479 94.3197C69.7405 93.101 69.8236 92.1265 69.8832 91.4599C69.913 91.1267 69.9369 90.8706 69.9532 90.6997C69.9614 90.6142 69.9676 90.5501 69.9717 90.5082C69.9737 90.4873 69.9753 90.472 69.9762 90.4623C69.9767 90.4575 69.977 90.4541 69.9772 90.4522C69.9773 90.4512 69.9774 90.4506 69.9774 90.4503C69.9774 90.4502 69.9774 90.4503 69.9774 90.4502C69.9774 90.4504 69.9774 90.4506 65.5 90ZM61.0568 129.713C63.6479 145.87 65.4342 156.729 75.2933 171.052L82.7067 165.948C74.0791 153.415 72.5148 144.322 69.9432 128.287L61.0568 129.713ZM75.2933 171.052C79.6914 177.441 83.8012 182.66 88.7368 187.07C93.7101 191.513 99.3649 194.997 106.735 198.139L110.265 189.861C103.627 187.03 98.8493 184.036 94.7332 180.358C90.5794 176.647 86.9431 172.103 82.7067 165.948L75.2933 171.052ZM106.735 198.139C113.16 200.879 118.747 202.563 124.567 203.304C130.372 204.044 136.199 203.819 143.056 202.966L141.944 194.034C135.51 194.835 130.497 194.987 125.705 194.376C120.928 193.768 116.16 192.374 110.265 189.861L106.735 198.139ZM143.056 202.966C151.007 201.976 157.511 200.342 163.639 197.576C169.751 194.817 175.282 191.024 181.376 185.961L175.624 179.039C169.885 183.808 165.049 187.065 159.936 189.373C154.839 191.674 149.26 193.124 141.944 194.034L143.056 202.966ZM181.376 185.961C191.991 177.141 196.58 169.946 202.528 158.007L194.472 153.993C188.857 165.265 184.953 171.287 175.624 179.039L181.376 185.961ZM202.528 158.007C210.263 142.479 211.318 131.857 212.489 115.318L203.511 114.682C202.361 130.933 201.394 140.099 194.472 153.993L202.528 158.007ZM212.489 115.318C212.765 111.41 212.762 106.497 212.696 102.647C212.663 100.704 212.613 98.9971 212.571 97.7749C212.55 97.1634 212.532 96.6723 212.518 96.3325C212.511 96.1625 212.506 96.0304 212.502 95.9399C212.5 95.8946 212.498 95.8597 212.497 95.8358C212.497 95.8238 212.496 95.8145 212.496 95.808C212.496 95.8048 212.496 95.8022 212.496 95.8004C212.496 95.7995 212.495 95.7987 212.495 95.7981C212.495 95.7979 212.495 95.7976 212.495 95.7974C212.495 95.7972 212.495 95.797 208 96C203.505 96.203 203.505 96.2029 203.505 96.2028C203.505 96.2029 203.505 96.2028 203.505 96.2029C203.505 96.2031 203.505 96.2034 203.505 96.2039C203.505 96.2048 203.505 96.2065 203.505 96.2089C203.505 96.2136 203.505 96.2211 203.506 96.2312C203.507 96.2516 203.508 96.2828 203.51 96.3243C203.513 96.4073 203.519 96.5315 203.525 96.6932C203.538 97.0166 203.556 97.4894 203.576 98.0809C203.617 99.2647 203.665 100.92 203.697 102.801C203.762 106.602 203.759 111.188 203.511 114.682L212.489 115.318ZM196.67 85.4507L151.77 84.2794L151.535 93.2764L196.435 94.4477L196.67 85.4507ZM129.749 92.5534C126.955 95.606 123.858 99.7449 122.647 104.358L131.353 106.642C132.003 104.164 133.91 101.338 136.388 98.6294L129.749 92.5534ZM122.647 104.358C120.334 113.173 122.129 121.019 125.997 128.555L134.003 124.445C130.835 118.272 129.754 112.731 131.353 106.642L122.647 104.358ZM125.997 128.555C127.997 132.453 130.206 135.436 132.963 137.989C135.673 140.497 138.766 142.452 142.306 144.429L146.694 136.571C143.361 134.71 141.002 133.166 139.078 131.385C137.201 129.648 135.597 127.55 134.003 124.445L125.997 128.555ZM142.306 144.429C150.259 148.87 157.095 149.289 165.435 148.479L164.565 139.521C157.255 140.231 152.469 139.796 146.694 136.571L142.306 144.429ZM165.435 148.479C169.41 148.093 172.476 147.484 175.458 146.259C178.379 145.059 180.984 143.36 184.085 141.183L178.915 133.817C175.865 135.957 173.96 137.144 172.038 137.934C170.178 138.698 168.069 139.181 164.565 139.521L165.435 148.479ZM184.085 141.183C189.298 137.525 192.845 134.886 196.752 128.984L189.248 124.016C186.293 128.479 183.876 130.335 178.915 133.817L184.085 141.183ZM196.752 128.984C199.224 125.251 201.047 119.833 201.983 116.741L193.369 114.133C192.433 117.224 190.918 121.492 189.248 124.016L196.752 128.984ZM203 109.446V91.9485H194V109.446H203ZM201.983 116.741C202.724 114.292 203 111.818 203 109.446H194C194 111.131 193.803 112.699 193.369 114.133L201.983 116.741ZM151.77 84.2794C144.077 84.0787 135.601 86.159 129.749 92.5534L136.388 98.6294C139.876 94.818 145.398 93.1162 151.535 93.2764L151.77 84.2794ZM196.435 94.4477C195.08 94.4123 194 93.3038 194 91.9485H203C203 88.4247 200.192 85.5426 196.67 85.4507L196.435 94.4477Z" fill="black"/>
<path d="M133 60.5V42C133 36.4 133 36 124.5 36C118.833 36 106.289 35.6807 101.5 36C94 36.5 94 40 94 42V62.5C94 66.5 95 72 101.5 72H122.5C133 72 133 64 133 60.5Z" stroke="#232323" stroke-width="7"/>
<path d="M136 63.5V45C136 39.4 136 39 127.5 39C121.833 39 109.289 38.6807 104.5 39C97 39.5 97 43 97 45V65.5C97 69.5 98 75 104.5 75H125.5C136 75 136 67 136 63.5Z" stroke="#232323" stroke-opacity="0.12" stroke-width="5"/>
<path d="M174.432 56C174.432 51.5 171.836 42 160.5 42C149.164 42 139.794 42 134.874 42" stroke="black" stroke-width="4"/>
<path d="M70 45L75.3592 43.2136C79.6698 41.7767 84.3302 41.7767 88.6408 43.2136L94 45" stroke="#232323" stroke-width="4"/>
<circle cx="113" cy="54" r="6" fill="black"/>
<path d="M183 225C185.485 225 187.5 222.985 187.5 220.5C187.5 218.015 185.485 216 183 216V225ZM74.5 216C72.0147 216 70 218.015 70 220.5C70 222.985 72.0147 225 74.5 225V216ZM110 197.5V220.5H119V197.5H110ZM114.5 225H139.5V216H114.5V225ZM144 220.5V197.5H135V220.5H144ZM139.5 225H183V216H139.5V225ZM183 216H114.5V225H183V216ZM74.5 225H114.5V216H74.5V225Z" fill="black"/>
<defs>
<filter id="filter0_f_3_27" x="172" y="105" width="8" height="9" filterUnits="userSpaceOnUse" color-interpolation-filters="sRGB">
<feFlood flood-opacity="0" result="BackgroundImageFix"/>
<feBlend mode="normal" in="SourceGraphic" in2="BackgroundImageFix" result="shape"/>
<feGaussianBlur stdDeviation="0.5" result="effect1_foregroundBlur_3_27"/>
</filter>
<linearGradient id="paint0_linear_3_27" x1="152.5" y1="99.5" x2="183" y2="144" gradientUnits="userSpaceOnUse">
<stop stop-color="#FFF15E"/>
<stop offset="1" stop-color="#FFED2D"/>
</linearGradient>
</defs>
</svg>
