<svg width="160" height="130" viewBox="0 0 160 130" fill="none" xmlns="http://www.w3.org/2000/svg">
    <g clip-path="url(#clip0_3_32)">
        <path d="M44.3601 52.3222V31.0363C44.3601 24.593 44.3601 24.1328 45.8707 24.1328C46.8777 24.1328 49.1069 23.7654 49.958 24.1328C51.2909 24.7081 51.2909 28.7352 51.2909 31.0363V54.6234C51.2909 59.2258 51.1132 65.554 49.958 65.554H46.2261C44.3601 65.554 44.3601 56.3493 44.3601 52.3222Z" stroke="#232323" stroke-width="4.6205"/>
        <path d="M45.5152 51.115L8.55124 78.2604L9.1288 81.1482L12.0166 84.6136L47.8255 62.0886L51.8684 55.1579L45.5152 51.115Z" fill="white"/>
        <path d="M47.2479 48.8047L53.0235 55.7355L65.1524 33.2105L76.7036 21.6593L99.8061 17.6163H124.641L125.796 14.7285L111.357 7.79778L92.8754 4.90997L74.9709 8.37535L58.2216 19.349L49.5582 29.1676L47.2479 48.8047Z" fill="white"/>
        <path d="M54.7562 175.291L74.3933 198.393L78.4363 200.704L86.5222 196.661L59.9543 154.499L58.2216 85.1911H39.7396V88.6565V114.069L41.4723 139.482L47.8255 161.429L54.7562 175.291Z" fill="white"/>
        <path d="M50.1357 56.313L11.4391 83.4585L48.9806 85.7687C49.3657 100.015 48.4244 121 53.0235 145.835C56.0535 162.197 70.1579 187.805 77.8587 196.661L85.367 204.747L101.539 211.677L121.753 213.41L141.968 209.367L161.028 200.704L174.889 189.152L188.751 172.981L196.837 157.386L203.19 138.327L205.5 96.1648H193.949L192.794 121L181.242 136.017L168.536 145.258L147.744 149.301L129.839 144.102L115.4 128.508L110.78 116.957V107.716L113.09 101.94L116.555 96.1648L121.753 90.3892L128.107 87.5014L139.08 85.7687L150.054 83.4585V66.1316L144.856 41.2964C140.043 33.5956 130.301 18.1939 129.839 18.1939C129.262 18.1939 133.882 13.5734 94.608 13.5734C63.1886 13.5734 51.8684 42.0665 50.1357 56.313Z" fill="#FFED2D"/>
        <path d="M63.4528 93.5527C56.1622 97.3841 40.7356 98.605 39.8095 92.4183C39.4409 89.9554 40.5522 88.4153 42.6242 86.3682C46.6181 82.4226 52.4441 81.3569 59.5123 81.8307C64.022 82.133 68.1583 82.1406 70.2081 84.8557C72.7874 88.2724 67.9446 91.1922 63.4528 93.5527Z" fill="black" fill-opacity="0.2"/>
        <path d="M137.922 99.3072L193.424 100.584C194.679 100.613 195.681 101.638 195.681 102.894V120.401C195.681 123.044 195.337 125.682 194.455 128.174C193.302 131.434 191.409 136.084 189.098 139.162C184.992 144.632 181.422 147.004 175.333 150.773C167.971 155.329 164.536 156.866 155.584 157.633C146.218 158.436 139.262 157.985 131.047 153.939C122.821 149.889 117.993 146.553 113.691 139.162C109.48 131.927 107.759 124.862 110.1 116.996C111.303 112.956 114.698 108.993 118.12 105.823C123.418 100.918 130.704 99.1411 137.922 99.3072Z" fill="black" fill-opacity="0.12"/>
        <path d="M117.711 133.129L127.529 141.792L133.305 145.835V138.904L130.417 123.888L127.529 102.518L154.675 97.3199L195.104 98.4751L193.371 86.3463L170.846 85.1911H144.278H129.262L120.021 89.8116L113.668 98.4751L110.202 108.871L111.357 121L117.711 133.129Z" fill="#FFFCD8"/>
        <path d="M119.443 112.914C118.179 120.435 122.736 130.179 126.062 136.05C128.027 139.518 131.153 142.115 134.752 143.829L137.877 145.317C140.203 146.425 142.698 147.136 145.258 147.42L150.728 148.028C154.824 148.483 158.968 147.834 162.729 146.148L170.531 142.65C172.654 141.699 174.621 140.432 176.366 138.892L181.573 134.298C182.888 133.137 184.067 131.83 185.087 130.403L187.913 126.447C190.712 122.529 192.216 117.834 192.216 113.019V94.4321L137.505 95.5487C136.247 95.5744 134.992 95.6955 133.773 96.0066C131.304 96.6366 126.964 97.9954 124.641 100.208C120.759 103.906 120.332 107.627 119.443 112.914Z" fill="url(#paint0_linear_3_32)"/>
        <path d="M201.457 129.663C176.044 182.337 110.01 198.586 80.169 200.126L87.0997 205.324L108.47 212.832H128.684L152.942 205.902L172.001 192.04L187.596 174.136L199.724 151.611L203.19 134.861V127.353L201.457 129.663Z" fill="black" fill-opacity="0.2"/>
        <path d="M46.0928 51.115C46.0928 51.115 45.827 36.2263 51.2909 28.0125C55.466 21.736 59.2846 18.0604 65.7299 14.151C72.643 9.95784 76.8285 7.47781 84.7895 6.06509C91.0078 4.96162 94.6883 5.33325 100.961 6.06509C106.939 6.76252 110.435 7.18506 115.978 9.53047C122.258 12.1878 125.519 14.6048 130.417 19.349C134.694 23.492 136.536 26.4069 139.658 31.4778C142.937 36.8042 144.509 40.0182 146.589 45.9169C149.192 53.3009 149.846 57.7639 150.632 65.554C151.401 73.1841 150.632 85.1911 150.632 85.1911" stroke="black" stroke-width="10.3961"/>
        <path d="M11.982 74.6865L46.4112 50.5465C46.8889 50.2115 47.5415 50.2854 47.9322 50.7188L61.6245 65.9047C68.3247 73.3359 63.0512 85.1911 53.0455 85.1911H15.2978C9.65317 85.1911 7.36029 77.927 11.982 74.6865Z" stroke="black" stroke-width="9.241"/>
        <path d="M40.3172 131.396L45.4497 130.573L40.3172 131.396ZM55.9114 177.024L51.6297 179.971L51.6297 179.971L55.9114 177.024ZM89.9875 206.479L87.9488 211.261L89.9875 206.479ZM129.262 211.677L129.904 216.836L129.262 211.677ZM170.846 193.195L167.524 189.197L167.524 189.197L170.846 193.195ZM193.949 162.584L198.601 164.902L193.949 162.584ZM204.922 115.224L199.737 114.857L204.922 115.224ZM210.115 93.0425C209.986 90.1746 207.556 87.9547 204.688 88.0842C201.82 88.2138 199.6 90.6437 199.73 93.5115L210.115 93.0425ZM111.357 104.251L116.385 105.57L111.357 104.251ZM114.823 128.508L110.198 130.882L114.823 128.508ZM131.572 144.68L129.038 149.218L129.038 149.218L131.572 144.68ZM155.252 148.723L155.755 153.897L155.252 148.723ZM174.312 141.215L171.326 136.96L174.312 141.215ZM187.596 128.508L183.261 125.639L183.261 125.639L187.596 128.508ZM192.997 115.729L188.022 114.223L192.997 115.729ZM40.3172 86.3463C35.1453 85.8257 35.1452 85.8262 35.1451 85.8268C35.1451 85.8272 35.145 85.8279 35.145 85.8286C35.1448 85.83 35.1446 85.8318 35.1444 85.8341C35.144 85.8385 35.1434 85.8447 35.1426 85.8525C35.141 85.8681 35.1388 85.8903 35.136 85.919C35.1304 85.9765 35.1223 86.0599 35.112 86.1682C35.0913 86.3847 35.0618 86.7005 35.0255 87.1064C34.9529 87.918 34.853 89.0903 34.7423 90.5489C34.5209 93.464 34.2554 97.5333 34.0782 102.158C33.7277 111.31 33.7062 123 35.1847 132.219L45.4497 130.573C44.1423 122.421 44.1208 111.587 44.4668 102.556C44.6378 98.0896 44.8946 94.1536 45.1086 91.3361C45.2155 89.9283 45.3114 88.8026 45.3803 88.0326C45.4147 87.6477 45.4424 87.3519 45.4612 87.1545C45.4706 87.0558 45.4778 86.9817 45.4825 86.9333C45.4849 86.9092 45.4867 86.8914 45.4878 86.8803C45.4883 86.8747 45.4887 86.8708 45.4889 86.8686C45.4891 86.8674 45.4891 86.8667 45.4892 86.8664C45.4892 86.8663 45.4892 86.8664 45.4892 86.8663C45.4891 86.8665 45.4891 86.8668 40.3172 86.3463ZM35.1847 132.219C38.1778 150.883 40.2412 163.427 51.6297 179.971L60.193 174.076C50.2271 159.599 48.4201 149.095 45.4497 130.573L35.1847 132.219ZM51.6297 179.971C56.71 187.351 61.4573 193.38 67.1586 198.474C72.9033 203.607 79.4354 207.631 87.9488 211.261L92.0263 201.698C84.3589 198.429 78.8398 194.97 74.0852 190.721C69.287 186.434 65.0867 181.185 60.193 174.076L51.6297 179.971ZM87.9488 211.261C95.3707 214.425 101.825 216.37 108.547 217.227C115.253 218.081 121.983 217.821 129.904 216.836L128.62 206.519C121.187 207.444 115.396 207.619 109.861 206.914C104.343 206.211 98.8361 204.601 92.0263 201.698L87.9488 211.261ZM129.904 216.836C139.088 215.693 146.602 213.805 153.68 210.61C160.74 207.423 167.13 203.042 174.168 197.193L167.524 189.197C160.894 194.706 155.309 198.469 149.403 201.135C143.515 203.792 137.071 205.467 128.62 206.519L129.904 216.836ZM174.168 197.193C186.43 187.005 191.731 178.694 198.601 164.902L189.296 160.267C182.81 173.286 178.301 180.243 167.524 189.197L174.168 197.193ZM198.601 164.902C207.537 146.966 208.755 134.696 210.108 115.591L199.737 114.857C198.409 133.628 197.292 144.216 189.296 160.267L198.601 164.902ZM210.108 115.591C210.427 111.078 210.423 105.402 210.347 100.956C210.308 98.711 210.251 96.7391 210.203 95.3273C210.179 94.6209 210.157 94.0536 210.141 93.6611C210.133 93.4648 210.127 93.3121 210.122 93.2075C210.12 93.1553 210.118 93.115 210.117 93.0873C210.117 93.0734 210.116 93.0627 210.116 93.0552C210.116 93.0515 210.115 93.0486 210.115 93.0464C210.115 93.0454 210.115 93.0445 210.115 93.0438C210.115 93.0435 210.115 93.0432 210.115 93.043C210.115 93.0427 210.115 93.0425 204.922 93.277C199.73 93.5115 199.73 93.5114 199.73 93.5113C199.73 93.5114 199.73 93.5113 199.73 93.5114C199.73 93.5116 199.73 93.5119 199.73 93.5125C199.73 93.5136 199.73 93.5155 199.73 93.5183C199.73 93.5237 199.731 93.5324 199.731 93.5441C199.732 93.5676 199.734 93.6036 199.736 93.6516C199.74 93.7474 199.746 93.891 199.753 94.0777C199.768 94.4513 199.789 94.9975 199.812 95.6807C199.859 97.0482 199.915 98.9601 199.952 101.134C200.027 105.524 200.023 110.821 199.737 114.857L210.108 115.591ZM191.834 81.0913L139.969 79.7383L139.698 90.1309L191.563 91.4839L191.834 81.0913ZM114.533 89.2958C111.306 92.8219 107.728 97.6029 106.33 102.931L116.385 105.57C117.137 102.707 119.339 99.4429 122.202 96.3143L114.533 89.2958ZM106.33 102.931C103.657 113.114 105.73 122.177 110.198 130.882L119.447 126.135C115.787 119.004 114.539 112.604 116.385 105.57L106.33 102.931ZM110.198 130.882C112.509 135.385 115.061 138.831 118.246 141.779C121.375 144.677 124.949 146.935 129.038 149.218L134.106 140.142C130.257 137.992 127.531 136.209 125.309 134.151C123.141 132.144 121.288 129.721 119.447 126.135L110.198 130.882ZM129.038 149.218C138.224 154.348 146.121 154.833 155.755 153.897L154.749 143.549C146.306 144.37 140.777 143.867 134.106 140.142L129.038 149.218ZM155.755 153.897C160.346 153.451 163.888 152.747 167.332 151.332C170.706 149.946 173.716 147.983 177.298 145.469L171.326 136.96C167.802 139.433 165.602 140.804 163.382 141.716C161.233 142.599 158.798 143.156 154.749 143.549L155.755 153.897ZM177.298 145.469C183.319 141.243 187.417 138.195 191.93 131.378L183.261 125.639C179.849 130.794 177.056 132.938 171.326 136.96L177.298 145.469ZM191.93 131.378C194.785 127.065 196.891 120.807 197.972 117.235L188.022 114.223C186.941 117.793 185.191 122.724 183.261 125.639L191.93 131.378ZM199.147 108.809V88.597H188.751V108.809H199.147ZM197.972 117.235C198.828 114.406 199.147 111.549 199.147 108.809H188.751C188.751 110.755 188.523 112.567 188.022 114.223L197.972 117.235ZM139.969 79.7383C131.084 79.5065 121.292 81.9094 114.533 89.2958L122.202 96.3143C126.231 91.9116 132.609 89.9459 139.698 90.1309L139.969 79.7383ZM191.563 91.4839C189.998 91.443 188.751 90.1626 188.751 88.597H199.147C199.147 84.5266 195.903 81.1974 191.834 81.0913L191.563 91.4839Z" fill="black"/>
        <path d="M118.288 52.2701V30.9003C118.288 24.4316 118.288 23.9695 108.47 23.9695C101.924 23.9695 87.434 23.6007 81.9017 23.9695C73.2382 24.5471 73.2382 28.59 73.2382 30.9003V54.5803C73.2382 59.2008 74.3933 65.554 81.9017 65.554H106.159C118.288 65.554 118.288 56.313 118.288 52.2701Z" stroke="#232323" stroke-width="8.08587"/>
        <path d="M121.753 55.7355V34.3656C121.753 27.897 121.753 27.4349 111.935 27.4349C105.389 27.4349 90.8994 27.0661 85.367 27.4349C76.7036 28.0125 76.7036 32.0554 76.7036 34.3656V58.0457C76.7036 62.6662 77.8587 69.0194 85.367 69.0194H109.625C121.753 69.0194 121.753 59.7784 121.753 55.7355Z" stroke="#232323" stroke-opacity="0.12" stroke-width="5.77562"/>
        <path d="M166.148 47.072C166.148 41.874 163.149 30.9003 150.054 30.9003C136.959 30.9003 126.136 30.9003 120.452 30.9003" stroke="black" stroke-width="4.6205"/>
        <path d="M45.5152 34.3656L51.7058 32.3021C56.6851 30.6424 62.0684 30.6424 67.0477 32.3021L73.2382 34.3656" stroke="#232323" stroke-width="4.6205"/>
        <circle cx="95.1856" cy="44.7618" r="6.93075" fill="black"/>
    </g>
    <defs>
        <linearGradient id="paint0_linear_3_32" x1="140.813" y1="97.3199" x2="176.044" y2="148.723" gradientUnits="userSpaceOnUse">
            <stop stop-color="#FFF15E"/>
            <stop offset="1" stop-color="#FFED2D"/>
        </linearGradient>
        <clipPath id="clip0_3_32">
            <rect width="160" height="130" fill="white"/>
        </clipPath>
    </defs>
</svg>
